<svg xmlns="http://www.w3.org/2000/svg" viewBox="0 0 30.23 30.23"><defs><style>.cls-1{fill:#222221;}</style></defs><title>ic_Asset 20</title><g id="Layer_2" data-name="Layer 2"><g id="Capa_1" data-name="Capa 1"><g id="_Group_" data-name="&lt;Group&gt;"><path id="_Compound_Path_" data-name="&lt;Compound Path&gt;" class="cls-1" d="M15.12,0A15.12,15.12,0,1,0,30.23,15.12,15.12,15.12,0,0,0,15.12,0Zm0,2.63a12.42,12.42,0,0,1,7.61,2.61,15.36,15.36,0,0,1-6.28,4.64A56.72,56.72,0,0,0,12.05,3,12.48,12.48,0,0,1,15.12,2.63ZM9.48,4a55.33,55.33,0,0,1,4.46,6.78A40.16,40.16,0,0,1,3,12.16,12.53,12.53,0,0,1,9.48,4ZM2.63,15.12c0-.11,0-.22,0-.32a42.39,42.39,0,0,0,12.53-1.67q.44.9.84,1.8A19.47,19.47,0,0,0,5.52,23.1,12.46,12.46,0,0,1,2.63,15.12ZM15.12,27.6A12.45,12.45,0,0,1,7.45,25,17,17,0,0,1,17,17.36a49.59,49.59,0,0,1,2.58,9.4A12.38,12.38,0,0,1,15.12,27.6Zm6.93-2.1a51.39,51.39,0,0,0-2.42-8.69,25.1,25.1,0,0,1,7.81.25A12.51,12.51,0,0,1,22.05,25.5ZM18.62,14.32c-.3-.71-.62-1.42-1-2.12a18,18,0,0,0,7-5.14,12.51,12.51,0,0,1,2.92,7.35A27,27,0,0,0,18.62,14.32Z"/></g></g></g></svg>