<svg xmlns="http://www.w3.org/2000/svg" viewBox="0 0 26.9 23.28"><defs><style>.cls-1{fill:#222221;}</style></defs><title>ic_Asset 21</title><g id="Layer_2" data-name="Layer 2"><g id="Capa_1" data-name="Capa 1"><g id="_Group_" data-name="&lt;Group&gt;"><path id="_Path_" data-name="&lt;Path&gt;" class="cls-1" d="M23,0q-5.6-.18-7.58,6.32a5.09,5.09,0,0,1,2-.44c1.37,0,2,.77,1.81,2.31a10.49,10.49,0,0,1-1.81,4.06c-1.13,1.78-2,2.67-2.53,2.67-.73,0-1.39-1.37-2-4.12-.2-.8-.56-2.86-1.08-6.16Q11,0,7.91.34q-1.32.12-4,2.42C2.64,3.93,1.33,5.09,0,6.26L1.27,7.89A8.43,8.43,0,0,1,3.38,6.62Q4.76,6.62,6,11l2.17,8q1.62,4.35,4,4.35,3.8,0,9.28-7.14,5.31-6.83,5.48-10.75C27,1.88,25.74.09,23,0Z"/></g></g></g></svg>