<svg xmlns="http://www.w3.org/2000/svg" viewBox="0 0 26.74 17.02"><defs><style>.cls-1{fill:#222221;}</style></defs><title>ic_behance</title><g id="Layer_2" data-name="Layer 2"><g id="Capa_1" data-name="Capa 1"><g id="_Group_" data-name="&lt;Group&gt;"><g id="_Group_2" data-name="&lt;Group&gt;"><path id="_Compound_Path_" data-name="&lt;Compound Path&gt;" class="cls-1" d="M9.83,16.38a4.66,4.66,0,0,0,1.88-.83,4.75,4.75,0,0,0,1.17-1.31,4.87,4.87,0,0,0,.74-2.65A4.41,4.41,0,0,0,13,9.16a3.71,3.71,0,0,0-1.91-1.47,3.94,3.94,0,0,0,1.26-.94,3.72,3.72,0,0,0,.77-2.45,4.19,4.19,0,0,0-.76-2.53Q11.06,0,8,0H0V16.6H7.48A11.52,11.52,0,0,0,9.83,16.38ZM3.31,2.88H6.92a6.39,6.39,0,0,1,2,.26,1.49,1.49,0,0,1,.89,1.53A1.57,1.57,0,0,1,9.1,6.13a3.24,3.24,0,0,1-1.75.41h-4Zm0,10.84V9.29H7.4a4.09,4.09,0,0,1,1.66.29,1.78,1.78,0,0,1,1.06,1.77A2.1,2.1,0,0,1,9,13.43a4.08,4.08,0,0,1-1.69.29Z"/><g id="_Group_3" data-name="&lt;Group&gt;"><path id="_Compound_Path_2" data-name="&lt;Compound Path&gt;" class="cls-1" d="M16.43,15.51A6.68,6.68,0,0,0,20.76,17a6,6,0,0,0,4.62-1.79A4.07,4.07,0,0,0,26.57,13H23.29a2.79,2.79,0,0,1-.66.85,2.75,2.75,0,0,1-1.78.56A3.33,3.33,0,0,1,19.08,14a3,3,0,0,1-1.29-2.59h8.94a16.15,16.15,0,0,0-.1-2.44,6.11,6.11,0,0,0-1-2.54,5,5,0,0,0-2.12-1.82A7.07,7.07,0,0,0,20.64,4a5.94,5.94,0,0,0-4.39,1.7,6.65,6.65,0,0,0-1.69,4.89Q14.56,14,16.43,15.51Zm2.3-8.16a2.52,2.52,0,0,1,1.91-.7,2.84,2.84,0,0,1,1.91.66,2.69,2.69,0,0,1,.85,1.94H17.87A3.33,3.33,0,0,1,18.73,7.35Z"/><rect id="_Path_" data-name="&lt;Path&gt;" class="cls-1" x="16.82" y="0.95" width="7.22" height="1.68"/></g></g></g></g></g></svg>