<svg xmlns="http://www.w3.org/2000/svg" viewBox="0 0 84.37 100"><defs><style>.cls-1{fill-rule:evenodd;}</style></defs><title>ic_github</title><g id="Layer_2" data-name="Layer 2"><g id="Layer_1-2" data-name="Layer 1"><path class="cls-1" d="M57.41,100H33a3.06,3.06,0,0,1-3-3.19v0c0-1.56-.06-6.69-.09-12.11C12.8,88.59,9.2,77,9.2,77c-2.8-7.5-6.82-9.51-6.82-9.51-5.58-4,.41-3.95.41-3.95C9,64,12.2,70.23,12.2,70.23c5.48,9.92,14.37,7.06,17.88,5.4.55-4.2,2.15-7.08,3.9-8.7C20.33,65.29,6,59.71,6,34.81a26,26,0,0,1,6.33-17.45c-.65-1.64-2.74-8.26.6-17.21,0,0,5.14-1.75,16.89,6.67a55.07,55.07,0,0,1,30.75,0C72.3-1.6,77.45.15,77.45.15c3.33,9,1.24,15.57.59,17.21a25.88,25.88,0,0,1,6.33,17.45c0,25-14.37,30.46-28.05,32.07,2.21,2,4.17,6,4.17,12,0,8.7-.07,15.7-.07,17.85v0A3.06,3.06,0,0,1,57.41,100Z"/></g></g></svg>