<svg xmlns="http://www.w3.org/2000/svg" viewBox="0 0 28.04 26.17"><defs><style>.cls-1{fill:#222221;fill-rule:evenodd;}</style></defs><title>ic_snapshat</title><g id="Layer_2" data-name="Layer 2"><g id="Capa_1" data-name="Capa 1"><g id="_Group_" data-name="&lt;Group&gt;"><path id="_Path_" data-name="&lt;Path&gt;" class="cls-1" d="M27.76,20h0s0,0,0,0h0a3.32,3.32,0,0,0-.89-.33h0A7.62,7.62,0,0,1,23.18,17a8.26,8.26,0,0,1-1.25-2.19h0a1,1,0,0,1,0-.93h0a2.61,2.61,0,0,1,1.25-.8h0a4.94,4.94,0,0,0,1.7-.88h0a1,1,0,0,0,.25-.32s0-.07,0-.11a.64.64,0,0,0,0-.45h0a1.38,1.38,0,0,0-.6-.56h0a1.22,1.22,0,0,0-1-.09h0a6.88,6.88,0,0,1-.9.26h0a2,2,0,0,1-1,0s0-.12,0-.22h0c0-.62,0-1.26,0-1.92h0a17.69,17.69,0,0,0-.08-3.08h0A6.89,6.89,0,0,0,18.7,1.31,7.28,7.28,0,0,0,15.17.05h0c-.44,0-.85,0-1.27,0A7.92,7.92,0,0,0,9.07,1.53,7.86,7.86,0,0,0,6.72,4.6h0a8.57,8.57,0,0,0-.38,3.74h0a18.66,18.66,0,0,1,.06,2.46s0,0,0,0a3.1,3.1,0,0,1-1.21,0h0a7.34,7.34,0,0,1-.92-.26h0a1.12,1.12,0,0,0-.9.2h0a.94.94,0,0,0-.5.74v.08h0a.85.85,0,0,0,.31.5l.31.24,0,0a9.16,9.16,0,0,0,1.91.82h0A1.39,1.39,0,0,1,6.2,14a2.33,2.33,0,0,1-.34,1.46h0A8.91,8.91,0,0,1,3,18.77a6.81,6.81,0,0,1-2.12,1h0a1.2,1.2,0,0,0-.75.44.2.2,0,0,0,0,.08.65.65,0,0,0,.12.6,1.17,1.17,0,0,0,.32.25h0a7.66,7.66,0,0,0,2,.69h0a6.76,6.76,0,0,1,1.22.31s0,.14.13.33c.12.35.17.75.3,1.19a.36.36,0,0,0,.26.23.72.72,0,0,0,.47,0h0A7.55,7.55,0,0,1,8,23.73H8a12.2,12.2,0,0,1,2.91,1.57h0a4.85,4.85,0,0,0,2.32.85h0a18.12,18.12,0,0,0,2-.05h0a3.58,3.58,0,0,0,1.55-.53h0c1.05-.6,2-1.32,3-1.77h0A5.23,5.23,0,0,1,21,23.66h0a16.63,16.63,0,0,1,2.54.13.11.11,0,0,0,.08,0,.46.46,0,0,0,.29-.16.42.42,0,0,0,.09-.18c0-.08.05-.12,0-.05l0-.07a3.39,3.39,0,0,1,.49-1.25.74.74,0,0,1,.52-.16h0a9.41,9.41,0,0,0,2-.57h0a1.77,1.77,0,0,0,.82-.55h0a.58.58,0,0,0-.18-.83Z"/></g></g></g></svg>