<svg xmlns="http://www.w3.org/2000/svg" viewBox="0 0 28.31 28.18"><defs><style>.cls-1{fill:#222221;}</style></defs><title>ic_skype</title><g id="Layer_2" data-name="Layer 2"><g id="Capa_1" data-name="Capa 1"><g id="_Group_" data-name="&lt;Group&gt;"><path id="_Compound_Path_" data-name="&lt;Compound Path&gt;" class="cls-1" d="M.93,14.1A13.21,13.21,0,0,0,14.14,27.31a13.46,13.46,0,0,0,2.48-.23A7.71,7.71,0,0,0,27.15,16.41a13.5,13.5,0,0,0,.2-2.31A13.21,13.21,0,0,0,14.14.89a13,13,0,0,0-2.43.23A7.71,7.71,0,0,0,0,7.71a7.62,7.62,0,0,0,1.15,4A13.09,13.09,0,0,0,.93,14.1ZM14.29,4.72c4.26.25,6.75,2.12,7,3.87a1.79,1.79,0,0,1-2,2c-1.92,0-2.12-2.57-5.44-2.57-1.5,0-2.76.63-2.76,2,0,2.82,10.63,1.18,10.63,7.39,0,3.58-2.86,5.92-7.14,5.92-3.76,0-7.54-1.7-7.52-4.64A1.64,1.64,0,0,1,8.63,17c2.22,0,2.2,3.3,5.72,3.3,2.48,0,3.32-1.35,3.32-2.3C17.67,14.61,7,16.69,7,10.3,7,6.84,9.82,4.45,14.29,4.72Z"/></g></g></g></svg>