<svg xmlns="http://www.w3.org/2000/svg" viewBox="0 0 16.53 26.89"><defs><style>.cls-1{fill:#222221;}</style></defs><title>ic_tumbler</title><g id="Layer_2" data-name="Layer 2"><g id="Capa_1" data-name="Capa 1"><g id="_Group_" data-name="&lt;Group&gt;"><path id="_Path_" data-name="&lt;Path&gt;" class="cls-1" d="M2.94,20.46a7.86,7.86,0,0,0,.39,2.81A4.75,4.75,0,0,0,4.72,25.1a6.86,6.86,0,0,0,2.41,1.33,10.48,10.48,0,0,0,3.26.46,13.71,13.71,0,0,0,3-.32,16.3,16.3,0,0,0,3.12-1.14V21.2a7.29,7.29,0,0,1-4.06,1.33,3.84,3.84,0,0,1-2-.54,2,2,0,0,1-.92-1.06,10.7,10.7,0,0,1-.25-3V11h6.39V6.81H9.26V0H5.45a10.42,10.42,0,0,1-.94,3.42A7.17,7.17,0,0,1,2.7,5.73,7.81,7.81,0,0,1,0,7.2V11H2.94Z"/></g></g></g></svg>