<svg xmlns="http://www.w3.org/2000/svg" viewBox="0 0 37.95 26.74"><defs><style>.cls-1{fill:#222221;}</style></defs><title>ic_youtube</title><g id="Layer_2" data-name="Layer 2"><g id="Capa_1" data-name="Capa 1"><g id="_Group_" data-name="&lt;Group&gt;"><g id="_Group_2" data-name="&lt;Group&gt;"><path id="_Compound_Path_" data-name="&lt;Compound Path&gt;" class="cls-1" d="M37.16,4.17A4.77,4.77,0,0,0,33.8.8C30.84,0,19,0,19,0S7.11,0,4.15.8A4.77,4.77,0,0,0,.79,4.17C0,7.15,0,13.37,0,13.37s0,6.22.79,9.2a4.77,4.77,0,0,0,3.36,3.37c3,.8,14.83.8,14.83.8s11.86,0,14.82-.8a4.77,4.77,0,0,0,3.36-3.37c.79-3,.79-9.2.79-9.2S38,7.15,37.16,4.17ZM15.09,19V7.73L25,13.37Z"/></g></g></g></g></svg>